HIERARCHY
ROOT Hips
{
	OFFSET -0.001795 -0.223333 0.028219
	CHANNELS 6 Xposition Yposition Zposition Zrotation Yrotation Xrotation 
	JOINT LeftUpLeg
	{
		OFFSET 0.069520 -0.091406 -0.006815
		CHANNELS 3 Zrotation Yrotation Xrotation
		JOINT LeftLeg
		{
			OFFSET 0.034277 -0.375199 -0.004496
			CHANNELS 3 Zrotation Yrotation Xrotation
			JOINT LeftFoot
			{
				OFFSET -0.013596 -0.397961 -0.043693
				CHANNELS 3 Zrotation Yrotation Xrotation
				JOINT LeftToe
				{
					OFFSET 0.026358 -0.055791 0.119288
					CHANNELS 3 Zrotation Yrotation Xrotation
					End Site
					{
						OFFSET 0.000000 0.000000 0.000000
					}
				}
			}
		}
	}
	JOINT RightUpLeg
	{
		OFFSET -0.067670 -0.090522 -0.004320
		CHANNELS 3 Zrotation Yrotation Xrotation
		JOINT RightLeg
		{
			OFFSET -0.038290 -0.382569 -0.008850
			CHANNELS 3 Zrotation Yrotation Xrotation
			JOINT RightFoot
			{
				OFFSET 0.015774 -0.398415 -0.042312
				CHANNELS 3 Zrotation Yrotation Xrotation
				JOINT RightToe
				{
					OFFSET -0.025372 -0.048144 0.123348
					CHANNELS 3 Zrotation Yrotation Xrotation
					End Site
					{
						OFFSET 0.000000 0.000000 0.000000
					}
				}
			}
		}
	}
	JOINT Spine
	{
		OFFSET -0.002533 0.108963 -0.026696
		CHANNELS 3 Zrotation Yrotation Xrotation
		JOINT Spine1
		{
			OFFSET 0.005487 0.135180 0.001092
			CHANNELS 3 Zrotation Yrotation Xrotation
			JOINT Spine2
			{
				OFFSET 0.001457 0.052922 0.025425
				CHANNELS 3 Zrotation Yrotation Xrotation
				JOINT Neck
				{
					OFFSET -0.002778 0.213870 -0.042857
					CHANNELS 3 Zrotation Yrotation Xrotation
					JOINT Head
					{
						OFFSET 0.005152 0.064970 0.051349
						CHANNELS 3 Zrotation Yrotation Xrotation
						End Site
						{
							OFFSET 0.000000 0.000000 0.000000
						}
					}
				}
				JOINT LeftShoulder
				{
					OFFSET 0.078845 0.121749 -0.034090
					CHANNELS 3 Zrotation Yrotation Xrotation
					JOINT LeftArm
					{
						OFFSET 0.090977 0.030469 -0.008868
						CHANNELS 3 Zrotation Yrotation Xrotation
						JOINT LeftForeArm
						{
							OFFSET 0.259612 -0.012772 -0.027456
							CHANNELS 3 Zrotation Yrotation Xrotation
							JOINT LeftHand
							{
								OFFSET 0.249234 0.008986 -0.001171
								CHANNELS 3 Zrotation Yrotation Xrotation
								End Site
								{
									OFFSET 0.000000 0.000000 0.000000
								}
							}
						}
					}
				}
				JOINT RightShoulder
				{
					OFFSET -0.081759 0.118833 -0.038615
					CHANNELS 3 Zrotation Yrotation Xrotation
					JOINT RightArm
					{
						OFFSET -0.096012 0.032551 -0.009143
						CHANNELS 3 Zrotation Yrotation Xrotation
						JOINT RightForeArm
						{
							OFFSET -0.253742 -0.013329 -0.021401
							CHANNELS 3 Zrotation Yrotation Xrotation
							JOINT RightHand
							{
								OFFSET -0.255298 0.007772 -0.005559
								CHANNELS 3 Zrotation Yrotation Xrotation
								End Site
								{
									OFFSET 0.000000 0.000000 0.000000
								}
							}
						}
					}
				}
			}
		}
	}
}
MOTION
Frames: 14
Frame Time: 0.050000
0.000000 0.920737 0.000000 1.448767 2.760770 -5.747299 8.232870 -0.434784 -17.005310 -17.381615 8.273387 54.634239 11.385377 22.662492 5.457773 0.000000 0.000000 0.000000 -1.663542 0.985066 -11.723502 5.681690 -1.009032 20.705577 -9.142632 -21.631713 8.749808 0.000000 0.000000 0.000000 4.268178 -1.798296 22.140204 -1.544067 1.037545 -20.496360 -1.752323 0.527216 28.018992 5.605396 -1.994988 -22.176498 0.000000 0.000000 0.000000 -21.524648 -13.220459 5.724589 -49.524262 -17.762712 -1.117730 -9.866362 -76.389340 13.010279 0.000000 0.000000 0.000000 19.433068 5.454259 2.584572 50.184157 14.609944 -1.695502 161.458783 87.133585 169.219216 0.000000 0.000000 0.000000 
0.000240 0.923218 0.016185 2.134122 1.881842 -5.583739 10.391840 -0.111937 -19.698361 -20.077630 9.219900 47.867565 11.761606 23.241534 6.042238 0.000000 0.000000 0.000000 -2.526669 0.791364 -10.155074 5.957539 -1.000181 19.500397 -8.616893 -20.735544 7.733500 0.000000 0.000000 0.000000 3.312443 -1.600872 22.493538 -1.071253 0.887989 -21.140055 -1.525411 2.381114 28.739873 5.784400 -2.000501 -21.175511 0.000000 0.000000 0.000000 -21.487940 -12.190615 4.788484 -49.113495 -18.219509 -0.910886 -13.451084 -78.968388 16.162711 0.000000 0.000000 0.000000 19.475414 4.590575 2.447037 51.677914 15.763531 -1.267017 157.163097 87.152846 165.639095 0.000000 0.000000 0.000000 
0.002095 0.924907 0.031422 1.455779 1.519074 -4.966012 10.086613 -0.176591 -21.447183 -16.936460 6.300087 38.477358 12.110567 23.893120 4.450429 0.000000 0.000000 0.000000 -2.314983 0.777734 -9.647512 6.702210 -1.187090 19.071449 -8.412428 -20.366272 7.869949 0.000000 0.000000 0.000000 3.412625 -1.523902 21.265919 -1.126381 0.875748 -19.798106 -0.978786 2.179680 27.831943 5.398586 -1.709765 -21.553150 0.000000 0.000000 0.000000 -22.482746 -12.979022 5.326754 -47.742058 -16.178667 -1.613640 -2.939654 -81.650969 7.752416 0.000000 0.000000 0.000000 20.185783 6.119761 3.188266 51.334039 17.867982 -0.246528 -57.812240 88.211512 -47.521780 0.000000 0.000000 0.000000 
0.005439 0.925576 0.046093 1.444170 0.080923 -5.540557 9.692746 -0.146399 -21.044713 -13.637639 4.046523 28.363684 12.340032 23.767029 11.259355 0.000000 0.000000 0.000000 -1.827607 0.698321 -8.150170 5.556351 -0.774635 19.179749 -7.818712 -19.263424 6.941121 0.000000 0.000000 0.000000 3.415820 -1.550519 22.564880 -1.529677 0.966453 -20.613207 -1.416133 3.032419 27.769968 5.678987 -1.865249 -21.651894 0.000000 0.000000 0.000000 -22.414148 -12.372081 4.969463 -47.703765 -14.910272 -2.113588 -14.540975 -82.737555 18.117256 0.000000 0.000000 0.000000 21.300406 5.287454 2.754285 51.983110 17.961365 -0.189389 -44.878924 89.038863 -35.317030 0.000000 0.000000 0.000000 
0.011012 0.924905 0.061669 1.219994 -0.665073 -4.851160 9.700137 -0.113288 -20.738191 -10.583138 2.393413 19.321216 9.481947 19.517873 15.900682 0.000000 0.000000 0.000000 -2.186135 0.637106 -7.559437 5.914138 -0.824818 18.563179 -7.512430 -18.650928 5.937081 0.000000 0.000000 0.000000 3.471703 -1.411584 20.730868 -1.814749 1.026480 -20.425646 -1.465297 2.862025 27.654666 4.868070 -1.351982 -22.115656 0.000000 0.000000 0.000000 -22.397500 -11.545640 4.679264 -47.883418 -13.520472 -2.664865 -23.380315 -83.093898 26.333007 0.000000 0.000000 0.000000 21.998887 5.128036 2.488193 52.225070 17.021492 -0.509842 21.298303 86.188980 27.989944 0.000000 0.000000 0.000000 
0.017939 0.924847 0.078276 1.104971 -2.549842 -4.916520 10.622737 0.163341 -19.072522 -10.909957 2.299838 14.797554 7.887228 17.261245 19.489655 0.000000 0.000000 0.000000 -2.083087 0.505011 -5.793314 4.971073 -0.473097 17.317854 -6.751474 -17.016497 4.560916 0.000000 0.000000 0.000000 3.156618 -1.195645 19.281041 -2.299355 1.116290 -20.051485 -1.233811 3.910224 28.212233 5.224002 -1.527004 -22.497504 0.000000 0.000000 0.000000 -20.697328 -10.446731 4.085293 -49.736917 -12.499252 -3.201868 -35.033470 -84.344491 37.856567 0.000000 0.000000 0.000000 22.522830 4.234155 1.957334 52.951865 16.400045 -0.793279 30.356967 83.565560 35.017585 0.000000 0.000000 0.000000 
0.026397 0.923575 0.096187 0.403660 -2.993501 -5.268808 10.862833 0.236304 -18.782288 -11.220979 2.567238 16.926245 6.624344 15.621743 20.566107 0.000000 0.000000 0.000000 -2.070410 0.304627 -3.344170 5.084476 -0.494400 15.795833 -6.515340 -16.406497 3.619141 0.000000 0.000000 0.000000 4.326865 -1.351258 18.982447 -3.369709 1.416299 -20.404626 -1.496491 4.475953 28.831202 6.053977 -1.832311 -23.889400 0.000000 0.000000 0.000000 -19.492638 -10.467319 4.000603 -50.139634 -10.875363 -3.937496 -48.658558 -84.475816 50.570665 0.000000 0.000000 0.000000 23.473278 2.195398 0.888409 53.588347 15.001534 -1.519743 46.780417 81.070979 48.486169 0.000000 0.000000 0.000000 
0.036186 0.923670 0.114259 0.407979 -3.103677 -4.745667 10.259820 0.127959 -19.298009 -12.054379 3.062334 19.805339 6.295390 15.235204 21.211160 0.000000 0.000000 0.000000 -2.880031 0.167884 -1.566327 5.099524 -0.504610 13.704722 -6.346364 -15.987925 3.210095 0.000000 0.000000 0.000000 4.508724 -1.323864 18.111538 -3.984121 1.584483 -20.601955 -1.719974 4.784601 28.850519 6.281828 -1.766726 -25.121362 0.000000 0.000000 0.000000 -19.327025 -9.294377 3.308410 -50.217100 -9.792374 -4.371353 -64.801328 -83.716573 65.146693 0.000000 0.000000 0.000000 24.194776 0.734216 0.067518 53.863492 14.005569 -1.988864 47.633938 78.025374 47.014433 0.000000 0.000000 0.000000 
0.046779 0.923842 0.132298 0.705676 -2.620352 -4.360649 8.739054 -0.176315 -18.895753 -11.502041 2.901206 20.304212 6.506371 15.429862 19.542003 0.000000 0.000000 0.000000 -3.819280 0.123329 -0.800735 4.803926 -0.454694 13.743850 -6.473517 -16.308551 3.518732 0.000000 0.000000 0.000000 3.642482 -1.147782 17.136572 -3.879139 1.559909 -20.844974 -1.940098 4.574470 29.009270 6.399159 -1.789301 -25.534460 0.000000 0.000000 0.000000 -19.344232 -8.563583 2.918315 -50.044136 -8.888215 -4.752208 -73.526513 -82.837360 72.717749 0.000000 0.000000 0.000000 24.358259 -0.270646 -0.532960 54.706165 12.223493 -2.809123 51.119374 76.728389 49.155093 0.000000 0.000000 0.000000 
0.057705 0.925442 0.150581 0.627556 -3.175085 -4.644199 7.560524 -0.325531 -17.381608 -10.656061 2.710436 20.539160 7.044527 15.997632 18.189415 0.000000 0.000000 0.000000 -4.280876 0.049479 0.582542 4.142168 -0.288626 13.758819 -6.080607 -15.603057 4.488349 0.000000 0.000000 0.000000 2.953244 -1.030184 17.101033 -4.221409 1.639187 -21.293026 -1.954337 5.060304 29.225031 6.817716 -1.903185 -26.417192 0.000000 0.000000 0.000000 -18.702136 -7.309743 2.240871 -49.753159 -8.145132 -5.065291 -83.604853 -80.874745 80.561923 0.000000 0.000000 0.000000 24.117884 -1.263154 -1.069886 55.231463 10.914135 -3.443531 55.427319 74.871438 51.542661 0.000000 0.000000 0.000000 
0.069169 0.927322 0.168528 0.330637 -3.419649 -4.634591 6.241607 -0.497347 -16.229494 -9.330263 2.333874 20.759144 7.448314 16.455347 16.888637 0.000000 0.000000 0.000000 -4.506825 0.067977 0.403449 3.496866 -0.070019 16.837466 -5.358896 -14.121724 4.668481 0.000000 0.000000 0.000000 2.525506 -0.950593 16.812366 -4.112770 1.603506 -21.060950 -2.066955 5.315834 29.180357 7.607821 -2.323966 -26.595058 0.000000 0.000000 0.000000 -17.547982 -6.928439 2.043871 -49.595837 -7.707177 -5.223348 -87.405186 -79.513110 82.829410 0.000000 0.000000 0.000000 23.453077 -1.944082 -1.418620 55.702410 10.108118 -3.792162 55.878720 73.694113 51.030423 0.000000 0.000000 0.000000 
0.080527 0.928628 0.186116 -0.056640 -3.727624 -4.186091 5.174493 -0.616826 -15.233433 -8.255669 2.000383 20.380849 7.905294 17.013346 15.490023 0.000000 0.000000 0.000000 -5.300042 0.162703 -0.880340 3.683908 0.002389 21.192519 -4.018920 -11.291282 4.686828 0.000000 0.000000 0.000000 2.329115 -0.901578 16.389647 -4.759272 1.767529 -21.487568 -2.297827 5.280444 29.678938 8.450422 -2.860779 -26.726279 0.000000 0.000000 0.000000 -16.536402 -6.326536 1.841372 -49.525626 -6.784949 -5.649536 -93.893767 -78.183300 88.110629 0.000000 0.000000 0.000000 23.741148 -2.717668 -1.966803 55.494350 9.129141 -4.267446 57.616631 72.130666 51.111872 0.000000 0.000000 0.000000 
0.091282 0.929847 0.202550 -0.117767 -4.211137 -4.281870 4.066842 -0.709789 -14.136824 -7.611187 1.854935 20.650277 8.346836 17.589106 14.752835 0.000000 0.000000 0.000000 -5.598946 0.229480 -2.030426 2.770995 0.496988 26.208882 -3.095641 -9.306621 4.648667 0.000000 0.000000 0.000000 1.820461 -0.819660 16.387811 -4.786978 1.760282 -21.774770 -2.297985 5.535237 29.930774 8.459598 -3.023638 -25.792305 0.000000 0.000000 0.000000 -16.358948 -5.881272 1.648824 -49.215177 -6.680607 -5.700747 -98.668991 -77.346425 92.170298 0.000000 0.000000 0.000000 23.693630 -2.921090 -2.095661 55.168502 8.167169 -4.729972 62.390522 71.698446 54.783915 0.000000 0.000000 0.000000 
0.101306 0.928784 0.217949 -0.589081 -4.152768 -4.572758 3.153990 -0.729494 -12.346564 -6.573063 1.496886 20.034821 8.641217 17.998956 12.662741 0.000000 0.000000 0.000000 -5.286201 0.309291 -3.666206 1.969440 1.062281 31.900630 -2.474099 -8.406816 6.048243 0.000000 0.000000 0.000000 1.520333 -0.783356 16.416757 -4.376717 1.651528 -21.687105 -2.591531 5.604766 30.036739 7.975290 -2.913398 -24.384664 0.000000 0.000000 0.000000 -15.439486 -5.627942 1.533437 -49.189597 -7.710023 -5.310417 -98.555397 -76.391202 91.020153 0.000000 0.000000 0.000000 22.383160 -2.766445 -1.875184 55.409374 7.392396 -5.076299 65.237039 71.286233 56.952375 0.000000 0.000000 0.000000 
